<?xml version="1.0" encoding="utf-8"?>
<!-- Generator: Adobe Illustrator 19.2.1, SVG Export Plug-In . SVG Version: 6.00 Build 0)  -->
<svg version="1.1" id="Layer_1" xmlns="http://www.w3.org/2000/svg" xmlns:xlink="http://www.w3.org/1999/xlink" x="0px" y="0px"
	 viewBox="0 0 512 512" enable-background="new 0 0 512 512" xml:space="preserve">
<g>
	<path fill="#F16723" d="M81.1,432.8c-5.7,0-10.3-4.6-10.3-10.3s4.6-10.3,10.3-10.3c5.7,0,10.3,4.6,10.3,10.3S86.8,432.8,81.1,432.8
		z M81.1,419.1c-1.8,0-3.3,1.5-3.3,3.3s1.5,3.3,3.3,3.3s3.3-1.5,3.3-3.3S82.9,419.1,81.1,419.1z"/>
	<circle cx="390.8" cy="254.6" r="2.1"/>
	<circle cx="392.9" cy="65.8" r="2.1"/>
	<circle cx="62.6" cy="148.6" r="2.1"/>
	<circle cx="376.8" cy="59.7" r="3.1"/>
	<path fill="#FBD20A" d="M409,239.2c-6.6,0-11.9-5.3-11.9-11.9c0-6.6,5.3-11.9,11.9-11.9s11.9,5.3,11.9,11.9
		C420.9,233.9,415.6,239.2,409,239.2z M409,222.4c-2.7,0-4.9,2.2-4.9,4.9s2.2,4.9,4.9,4.9c2.7,0,4.9-2.2,4.9-4.9
		S411.7,222.4,409,222.4z"/>
	<path fill="#F16723" d="M458.1,402.5h-3.5V399c0-1.9-1.6-3.5-3.5-3.5s-3.5,1.6-3.5,3.5v3.5h-3.5c-1.9,0-3.5,1.6-3.5,3.5
		s1.6,3.5,3.5,3.5h3.5v3.5c0,1.9,1.6,3.5,3.5,3.5s3.5-1.6,3.5-3.5v-3.5h3.5c1.9,0,3.5-1.6,3.5-3.5S460,402.5,458.1,402.5z"/>
	<path fill="#FFE4B8" d="M433.6,337.4c-0.1,0-0.1,0-0.2,0c-44.9,0-81.4-36.4-81.4-81.4s36.4-81.4,81.4-81.4c0.1,0,0.1,0,0.2,0
		c7.8,0,13-8.2,9.3-15.1c-34.7-65-103.4-109.2-182.3-108.8C147.4,51.2,56.4,142.7,56.4,256c0,113.4,91.9,205.3,205.3,205.3
		c78.5,0,146.6-44,181.2-108.7C446.5,345.6,441.5,337.2,433.6,337.4z M305.7,402.4c-16.2,0-29.4-13.2-29.4-29.4
		c0-16.2,13.2-29.4,29.4-29.4s29.4,13.2,29.4,29.4C335.1,389.1,321.9,402.4,305.7,402.4z"/>
	<g>
		<path fill="#E7D0A9" d="M433.6,337.4c-0.1,0-0.1,0-0.2,0c-44.9,0-81.4-36.4-81.4-81.4s36.4-81.4,81.4-81.4c0.1,0,0.1,0,0.2,0
			c7.8,0,13-8.2,9.3-15.1c-34.7-65-103.4-109.2-182.3-108.8c-4.3,0-8.6,0.2-12.9,0.5c72.5,4.9,134.7,47.5,167.2,108.3
			c3.7,6.9-1.5,15.2-9.3,15.1c-0.1,0-0.1,0-0.2,0c-44.9,0-74.4,36.4-74.4,81.4s29.4,81.4,74.4,81.4c0.1,0,0.1,0,0.2,0
			c7.9,0,13,8.3,9.2,15.3c-32.5,60.8-94.6,103.3-167.1,108.2c4.6,0.3,9.2,0.5,13.9,0.5c78.5,0,146.6-44,181.2-108.7
			C446.5,345.6,441.5,337.2,433.6,337.4z"/>
	</g>
	<g>
		<path fill="#FFFFFF" d="M76.6,255.9c0-109.4,89.8-198.5,197.7-205c-4.5-0.3-9.1-0.4-13.7-0.4c-113.3,0.6-204.3,92-204.3,205.3
			c0,113.4,91.9,205.3,205.3,205.3c4.3,0,8.5-0.1,12.7-0.4C166.8,454.4,76.6,365.1,76.6,255.9z"/>
	</g>
	<path fill="#4E9BD4" d="M114.9,71.5h-3.5V68c0-1.9-1.6-3.5-3.5-3.5c-1.9,0-3.5,1.6-3.5,3.5v3.5h-3.5c-1.9,0-3.5,1.6-3.5,3.5
		s1.6,3.5,3.5,3.5h3.5V82c0,1.9,1.6,3.5,3.5,3.5c1.9,0,3.5-1.6,3.5-3.5v-3.5h3.5c1.9,0,3.5-1.6,3.5-3.5S116.8,71.5,114.9,71.5z"/>
	<circle cx="419.5" cy="433.1" r="2.1"/>
	<path d="M261.6,467.4c-39.8,0-78.7-11.1-112.3-32.2c-32.7-20.5-59.2-49.6-76.5-84c-1.5-3-0.3-6.6,2.7-8.1s6.6-0.3,8.1,2.7
		c16.4,32.4,41.3,59.8,72.2,79.2c31.7,19.9,68.3,30.4,105.9,30.4c73.7,0,141.1-40.4,175.9-105.5c1.1-2,0.3-3.7-0.1-4.4
		c-0.4-0.6-1.5-2.1-3.8-2.1h-0.2c-48.2,0-87.4-39.2-87.4-87.4c0-3.3,2.7-6,6-6s6,2.7,6,6c0,41.6,33.8,75.4,75.4,75.4h0.2
		c5.8,0,11.1,3,14.1,7.9c3,5,3.1,11,0.4,16.2C411.2,424.5,339.7,467.4,261.6,467.4z M305.7,409.6c-20.3,0-36.8-16.5-36.8-36.8
		s16.5-36.8,36.8-36.8s36.8,16.5,36.8,36.8S326,409.6,305.7,409.6z M305.7,348c-13.7,0-24.8,11.1-24.8,24.8s11.1,24.8,24.8,24.8
		s24.8-11.1,24.8-24.8S319.4,348,305.7,348z M72.1,341.4c-2.3,0-4.6-1.4-5.5-3.7c-4-9.5-7.2-19.3-9.8-29.2c-0.8-3.2,1.1-6.5,4.3-7.3
		c3.2-0.8,6.5,1.1,7.3,4.3c2.4,9.4,5.5,18.6,9.2,27.6c1.3,3.1-0.2,6.6-3.2,7.8C73.8,341.2,72.9,341.4,72.1,341.4z M59.7,299.5
		c-2.8,0-5.3-2-5.9-4.9c-2.5-12.9-3.5-24.1-3.5-38.6c0-56.4,21.8-109.4,61.4-149.1c39.6-39.8,92.5-61.9,148.9-62.2
		c0.4,0,0.7,0,1.1,0c78.2,0,149.6,42.8,186.5,112c2.7,5,2.6,11-0.4,15.9c-3,5-8.3,8-14.2,8h-0.2c-33.7,0-63.5,22.7-72.6,55.1
		c-0.9,3.2-4.2,5.1-7.4,4.2c-3.2-0.9-5.1-4.2-4.2-7.4c10.5-37.6,45.1-63.9,84.2-63.9h0.2c1.6,0,3.1-0.8,3.9-2.2
		c0.4-0.8,1.1-2.3,0.1-4.1C402.9,97,335.4,56.6,261.6,56.6c-0.3,0-0.7,0-1,0c-53.2,0.3-103.1,21.1-140.4,58.6s-57.9,87.5-57.9,140.7
		c0,13.8,1,24.3,3.3,36.4c0.6,3.3-1.5,6.4-4.7,7C60.5,299.5,60.1,299.5,59.7,299.5z"/>
	<ellipse fill="#EE3C7A" cx="200.2" cy="153.8" rx="30.1" ry="42.1"/>
	<ellipse fill="#FFFFFF" cx="177.9" cy="153.8" rx="30.1" ry="42.1"/>
	
		<ellipse transform="matrix(0.9998 -2.009148e-02 2.009148e-02 0.9998 -3.0516 3.761)" fill="#F05F88" cx="185.7" cy="153.8" rx="24.4" ry="42.1"/>
	<g>
		<ellipse fill="#3769A5" cx="320.6" cy="131.8" rx="30.1" ry="42.1"/>
		<ellipse fill="#FFFFFF" cx="298.2" cy="131.8" rx="30.1" ry="42.1"/>
		<ellipse fill="#4E9BD4" cx="306" cy="131.8" rx="24.4" ry="42.1"/>
	</g>
	<g>
		<ellipse fill="#FAAF1A" cx="146.9" cy="263.8" rx="30.1" ry="42.1"/>
		<ellipse fill="#FFFFFF" cx="124.6" cy="263.8" rx="30.1" ry="42.1"/>
		<ellipse fill="#FBD20A" cx="132.3" cy="263.8" rx="24.4" ry="42.1"/>
	</g>
	<g>
		<ellipse fill="#F05225" cx="199.3" cy="365.5" rx="30.1" ry="42.1"/>
		<ellipse fill="#FFFFFF" cx="177.1" cy="365.5" rx="30.1" ry="42.1"/>
		<ellipse fill="#F16723" cx="184.8" cy="365.5" rx="24.4" ry="42.1"/>
	</g>
	<path d="M188.2,201.9c-26.5,0-48.1-21.6-48.1-48.1s21.6-48.1,48.1-48.1s48.1,21.6,48.1,48.1S214.8,201.9,188.2,201.9z M188.2,117.6
		c-19.9,0-36.1,16.2-36.1,36.1s16.2,36.1,36.1,36.1s36.1-16.2,36.1-36.1C224.3,133.8,208.1,117.6,188.2,117.6z"/>
	<path d="M309.4,179.9c-26.5,0-48.1-21.6-48.1-48.1s21.6-48.1,48.1-48.1s48.1,21.6,48.1,48.1S335.9,179.9,309.4,179.9z M309.4,95.7
		c-19.9,0-36.1,16.2-36.1,36.1s16.2,36.1,36.1,36.1s36.1-16.2,36.1-36.1S329.3,95.7,309.4,95.7z"/>
	<path d="M135.8,311.9c-26.5,0-48.1-21.6-48.1-48.1s21.6-48.1,48.1-48.1s48.1,21.6,48.1,48.1S162.2,311.9,135.8,311.9z M135.8,227.6
		c-19.9,0-36.1,16.2-36.1,36.1s16.2,36.1,36.1,36.1s36.1-16.2,36.1-36.1S155.6,227.6,135.8,227.6z"/>
	<path d="M188.2,413.6c-26.5,0-48.1-21.6-48.1-48.1s21.6-48.1,48.1-48.1s48.1,21.6,48.1,48.1S214.8,413.6,188.2,413.6z M188.2,329.5
		c-19.9,0-36.1,16.2-36.1,36.1s16.2,36.1,36.1,36.1s36.1-16.2,36.1-36.1S208.1,329.5,188.2,329.5z"/>
</g>
</svg>
